<svg width="44" height="26" viewBox="0 0 44 26" fill="none" xmlns="http://www.w3.org/2000/svg">
<g clip-path="url(#clip0_17_27000)">
<path fill-rule="evenodd" clip-rule="evenodd" d="M-2.75 0H46.75V26H-2.75V0Z" fill="#199D00"/>
<path fill-rule="evenodd" clip-rule="evenodd" d="M9.72213 7.36833C9.67056 7.9777 9.59322 9.04411 10.2571 9.15583C11.0499 9.21677 10.6116 8.09958 10.9016 7.89645C10.9532 7.79489 11.0499 7.79489 11.0563 7.92184V8.87145C11.0563 9.17614 11.3141 9.26755 11.5075 9.32849C11.7137 9.31833 11.8555 9.32849 11.9329 9.48083L12.036 11.1211C12.036 11.1211 12.5129 11.2328 12.5387 10.2019C12.5581 9.59255 12.384 9.08981 12.4872 8.97302C12.4872 8.85622 12.6805 8.85114 12.8094 8.907C13.0157 9.01872 13.1059 9.16091 13.4282 9.11013C13.918 8.99841 14.2145 8.81052 14.221 8.51599C14.2113 8.22654 14.1348 7.9409 13.9954 7.67302C14.0212 7.62224 13.9051 7.48513 13.9309 7.43434C14.0147 7.54606 14.1501 7.53591 14.1758 7.43434C14.092 7.22106 13.9631 7.01286 13.7569 6.92653C13.5829 6.80466 13.3251 6.82497 13.2413 7.07888C13.1897 7.36833 13.3702 7.70856 13.6344 7.99294C13.6924 8.09958 13.7698 8.28239 13.7376 8.44489C13.5958 8.51091 13.454 8.48044 13.3315 8.38395C13.3315 8.38395 12.9448 8.15544 12.9448 8.09958C13.0479 7.58161 12.9641 7.52067 12.9061 7.37341C12.8674 7.17536 12.745 7.10934 12.6483 6.97731C12.5516 6.89606 12.4227 6.89606 12.3583 6.97731C12.1842 7.21091 12.268 7.71364 12.3905 7.94216C12.4807 8.15036 12.6161 8.28239 12.5516 8.28239C12.5001 8.39919 12.3905 8.36872 12.3067 8.23161C12.2124 7.94306 12.1669 7.64596 12.1713 7.34802C12.1391 7.11442 12.1004 6.61677 11.9006 6.48474C11.7846 6.36286 11.6106 6.4238 11.5462 6.53552C11.5291 6.76238 11.5356 6.98995 11.5655 7.21599C11.6944 7.59177 11.7395 7.92692 11.804 8.30778C11.8233 8.82067 11.4301 8.53122 11.4495 8.27224C11.534 7.94665 11.5274 7.61045 11.4301 7.28708C11.3657 7.15505 11.2948 7.12458 11.1336 7.14489C11.0112 7.14489 10.6954 7.41403 10.6051 7.87106C10.6051 7.87106 10.5278 8.10466 10.4956 8.31286C10.4504 8.54645 10.2571 8.71911 10.1153 8.28239C9.99927 7.96247 9.92193 7.18552 9.72857 7.36833H9.72213Z" fill="white"/>
<path fill-rule="evenodd" clip-rule="evenodd" d="M11.8809 9.86177L9.81836 10.6438C9.8377 10.2731 10.7916 9.60786 11.449 9.60278C11.868 9.60786 11.7648 9.72974 11.8744 9.86177H11.8809Z" fill="white"/>
<path fill-rule="evenodd" clip-rule="evenodd" d="M11.5142 10.3697C10.4314 12.5786 14.0601 12.8884 14.4662 10.4611C14.5048 10.3595 14.6595 10.263 14.6853 10.4255C14.6015 12.6243 11.8751 12.7716 11.4111 12.081C11.3019 11.8433 11.2473 11.5923 11.2499 11.3396C11.1855 10.9079 10.8955 11.0755 10.8503 11.5021C10.8052 11.7407 10.8181 11.8068 10.8181 12.0353C10.9599 13.772 14.4726 13.0255 15.0462 11.5935C15.3492 10.8013 14.9947 10.2173 15.1558 10.2173C15.5039 10.5118 15.9937 10.2579 16.1033 10.1564C16.1484 10.1056 16.2644 10.07 16.3417 10.1361C16.6124 10.2884 17.0894 10.2173 17.1925 9.94817C17.2505 9.67903 17.2956 9.40481 17.3085 9.12551C17.083 9.17629 16.9218 9.21184 16.9025 9.28801L16.8574 9.5216C16.838 9.59778 16.6511 9.59778 16.6382 9.50129C16.5544 9.1966 16.2064 9.16106 15.9937 9.62825C15.8583 9.71965 15.6005 9.73996 15.5748 9.60285C15.607 9.28801 15.4458 9.24739 15.1236 9.39465L14.8142 7.55637C14.9431 7.55637 15.072 7.63254 15.1945 7.51067C15.0656 7.18059 14.7755 6.51028 14.6144 6.45949C14.5435 6.3884 14.479 6.4341 14.3759 6.45442C14.2083 6.49504 14.0537 6.60676 14.1052 6.8302C14.2986 7.78489 14.4275 8.51106 14.6273 9.47082C14.6595 9.57746 14.5435 9.72473 14.3888 9.70949C14.131 9.57239 14.0665 9.29309 13.6154 9.30324C13.2931 9.30324 12.9322 9.58254 12.8871 9.8466C12.829 10.0599 12.8097 10.2884 12.8871 10.4712C13.1126 10.6845 13.3833 10.6642 13.6218 10.6185C13.8152 10.5525 13.9763 10.4001 14.0472 10.4357C14.0923 10.4814 14.0537 10.9892 13.1255 11.3751C12.5648 11.5782 12.1136 11.6189 11.8751 11.2583C11.7269 11.0298 11.888 10.1716 11.5142 10.3697V10.3697Z" fill="white"/>
<path fill-rule="evenodd" clip-rule="evenodd" d="M16.1357 8.12499C16.3484 8.06406 17.3797 7.12968 17.3797 7.12968L17.225 7.02812C17.167 6.99257 17.1734 6.95195 17.225 6.9164C17.4828 6.79452 17.399 6.54062 17.2701 6.41874C17.1826 6.38513 17.0863 6.36809 16.989 6.36897C16.8916 6.36985 16.7959 6.38863 16.7094 6.42382C16.5289 6.56093 16.4902 6.77929 16.632 6.91132C16.7674 6.9621 16.9027 7.07382 16.8125 7.13476C16.3871 7.49023 15.2334 8.10468 15.3687 8.12499C15.3945 8.15546 16.11 8.15546 16.1293 8.12499H16.1357ZM9.88379 11.4258C9.49707 11.9133 9.46484 12.6394 9.67754 12.8578C9.79355 12.9594 9.98047 13.0051 10.1158 12.9695C10.3607 12.8883 10.4703 12.4973 10.4123 12.3601C10.3285 12.2586 10.2641 12.2434 10.1803 12.3246C10.0127 12.5988 9.94179 12.4109 9.92246 12.2586C9.90398 12.0006 9.92127 11.7418 9.97402 11.4867C10.0191 11.2734 9.97402 11.3344 9.88379 11.4258V11.4258ZM26.4547 10.6488C26.0809 10.009 25.5588 9.37929 25.3977 9.14062C24.8954 8.51502 24.3622 7.90517 23.7992 7.31249C23.3996 6.93671 24.4566 7.46992 23.6703 6.71835L23.0967 6.33749C22.9678 6.2664 22.6584 6.13437 22.6068 6.34765C22.5811 6.54062 22.5939 6.64218 22.6326 6.7996C22.6648 6.90117 22.8582 7.0789 22.9549 7.18046C24.2763 8.55941 25.4368 10.0296 26.4225 11.573C26.59 11.507 26.5514 10.7555 26.4547 10.6488V10.6488Z" fill="white"/>
<path fill-rule="evenodd" clip-rule="evenodd" d="M24.8107 12.7715C24.7333 12.8375 24.9912 13.1168 25.3263 13.1168C25.8806 13.0661 26.3705 12.8223 26.8216 12.1723C27.005 11.9561 27.1219 11.7092 27.1632 11.4512C27.2178 10.2185 27.0924 8.98484 26.7894 7.77465C26.7701 7.67309 26.7894 7.55121 26.8023 7.52075C26.841 7.4852 26.9634 7.52074 27.0279 7.43442C27.1246 7.35824 26.7701 6.72348 26.5767 6.48481C26.5122 6.37309 26.48 6.302 26.364 6.49496C26.224 6.70789 26.1573 6.94602 26.1706 7.18559C26.4349 8.63285 26.5187 9.89731 26.6863 11.3446C26.7056 11.4868 26.6798 11.6899 26.5574 11.7711C26.071 12.1978 25.4758 12.5387 24.8107 12.7715V12.7715ZM32.3195 12.7664C31.9199 12.9493 31.9199 13.1575 32.2421 13.1625C32.7964 13.1118 33.4539 13.0762 33.905 12.5379C34.0644 12.2844 34.1565 12.0079 34.1757 11.7254C34.2569 10.5117 34.1552 9.29458 33.8728 8.09965C33.8599 7.99809 33.8019 7.75942 33.8212 7.72895C33.8599 7.65785 34.0404 7.73403 34.1048 7.65278C34.1951 7.5766 33.6343 7.00785 33.4345 6.7641C33.3701 6.65239 33.3443 6.58129 33.2218 6.77426C33.092 6.98914 33.0514 7.23079 33.1058 7.46489C33.4023 9.0391 33.6214 10.2172 33.6665 11.6086C33.6408 11.7407 33.6343 11.8118 33.557 11.9793C33.383 12.152 33.1896 12.3754 33.0091 12.4821C32.8287 12.5836 32.4419 12.6852 32.3195 12.7664V12.7664Z" fill="white"/>
<path fill-rule="evenodd" clip-rule="evenodd" d="M32.6156 11.3599C32.6156 10.9892 32.6221 10.6743 32.6092 10.395C32.605 10.1585 32.5392 9.92515 32.4158 9.70948C32.2998 9.50128 32.3707 9.3337 32.3127 9.11026C32.2611 8.88682 32.274 8.55167 32.1967 8.29268C32.1709 8.19112 32.1065 7.86104 32.1258 7.8255C32.158 7.7544 32.2805 7.8255 32.3449 7.74425C32.4352 7.66807 32.0227 6.83018 31.8164 6.59151C31.7455 6.48487 31.6037 6.52042 31.4426 6.69307C31.2815 6.80987 31.3395 7.06886 31.4039 7.31768C31.7971 8.95792 32.1 10.4458 32.0356 12.0048C32.0098 12.1368 32.6156 11.6087 32.6156 11.3599V11.3599ZM29.6701 9.32862C29.4188 9.31846 28.8967 8.93761 28.742 8.71925C28.7167 8.66588 28.7059 8.60891 28.7103 8.55205C28.7148 8.49518 28.7344 8.43969 28.7678 8.38917C28.8645 8.33839 29.0063 8.28761 29.1158 8.33839C29.1158 8.33839 29.2254 8.46026 29.2061 8.4755C29.335 8.52628 29.3994 8.50089 29.4123 8.45518C29.4188 8.37901 29.3736 8.33331 29.3736 8.25206C29.4317 8.01846 29.7604 7.98292 29.8893 8.13018C29.9795 8.22159 30.0182 8.40948 30.0246 8.53643C30.0246 8.60245 29.8957 8.52628 29.8119 8.53643C29.741 8.55675 29.7217 8.62784 29.7153 8.68878C29.7024 8.85636 29.6766 9.1255 29.6701 9.32354V9.32862ZM25.0424 11.7661C25.1069 11.2685 25.0166 10.3798 25.0102 10.0853C24.9757 9.32779 24.8961 8.57201 24.7717 7.82042C24.6944 7.39386 24.9908 7.86612 24.9522 7.61729C24.8555 7.19581 24.559 6.90636 24.2045 6.5255C24.0949 6.39854 24.0949 6.37315 23.9209 6.55597C23.7276 6.8962 23.8951 7.13487 23.9467 7.40401C24.1981 8.27745 24.3463 9.07979 24.4172 9.87706C24.4914 10.7053 24.5 11.5363 24.443 12.3653C24.6363 12.3704 24.9328 12.1267 25.0424 11.7661Z" fill="white"/>
<path fill-rule="evenodd" clip-rule="evenodd" d="M33.472 10.9687C33.0273 10.3797 32.3634 9.74998 32.183 9.51131C31.5853 8.85373 30.9576 8.21347 30.3009 7.59178C29.7531 7.13475 30.5587 7.51561 30.1978 7.16014C29.8949 6.90115 29.8111 6.81483 29.5468 6.6574C29.4179 6.59139 29.3406 6.46444 29.289 6.68279C29.2685 6.87193 29.2642 7.06195 29.2761 7.25154C29.2761 7.33787 29.3921 7.50545 29.4953 7.60701C30.8295 8.90193 32.2925 10.2222 33.4656 11.8828C33.6332 11.8168 33.5752 11.0703 33.4656 10.9687H33.472Z" fill="white"/>
<path fill-rule="evenodd" clip-rule="evenodd" d="M13.4012 9.8871C13.369 9.9328 13.2981 9.98866 13.3239 10.0445C13.369 10.0953 13.4141 10.1105 13.4915 10.1105C13.5624 10.1105 13.6655 10.1258 13.6848 10.0953C13.7235 10.0598 13.7493 9.99374 13.7235 9.92773C13.6462 9.77538 13.4399 9.83632 13.4012 9.8871V9.8871Z" fill="#1BA400"/>
<path fill-rule="evenodd" clip-rule="evenodd" d="M28.3289 18.4083C28.9219 18.4286 29.3086 18.4337 29.8307 18.4794L30.4494 18.4286C31.1326 18.3778 31.1584 19.1954 31.1584 19.1954C31.1584 19.6778 30.9199 19.7032 30.617 19.754C30.443 19.7743 30.3592 19.6727 30.2625 19.5712C30.1167 19.608 29.9615 19.615 29.8113 19.5915C29.56 19.5813 29.315 19.5813 29.0701 19.5661C28.8123 19.5508 28.6705 19.5915 28.4062 19.5712C28.3547 19.6372 28.2773 19.7286 28.1227 19.7032C27.9937 19.6879 27.8326 19.3985 27.8777 19.17C27.9744 19.0075 27.9422 19.0633 27.9422 18.9922C25.5187 18.9415 23.076 18.8551 20.7041 18.8805C18.8479 18.8856 17.0174 18.9465 15.1805 19.0075C14.2008 18.9973 13.4531 18.8754 12.9375 18.2813C12.9891 18.2813 15.4383 18.3879 16.1537 18.3524C17.475 18.3422 18.6867 18.2559 20.0338 18.2254C22.6893 18.261 25.3254 18.261 27.9809 18.4083C27.723 18.2712 27.723 17.9512 28.1098 17.87C28.142 17.8497 28.1613 18.0274 28.2193 18.0223C28.5352 18.0071 28.3934 18.3422 28.3289 18.4083V18.4083ZM17.6555 6.87076C17.2559 7.77467 17.8875 8.76998 18.3258 8.6735C18.648 8.77506 18.8414 8.29771 18.9703 7.77974C19.067 7.63248 19.1314 7.61725 19.1766 7.69342C19.1637 8.38404 19.241 8.54146 19.4666 8.74967C19.9693 9.05435 20.3883 8.79029 20.4205 8.7649L20.8072 8.45514C20.8975 8.37896 21.0135 8.37896 21.1359 8.4399C21.2584 8.52623 21.2391 8.6735 21.4969 8.77506C21.716 8.84615 22.1736 8.79537 22.2832 8.6481C22.425 8.45006 22.4637 8.38404 22.5281 8.31295C22.6313 8.20631 22.8053 8.25201 22.8053 8.28756C22.7859 8.3485 22.6828 8.40435 22.7537 8.51607C22.8826 8.58717 22.9084 8.54146 22.9793 8.52623C23.2371 8.42467 23.4305 7.98795 23.4305 7.98795C23.4369 7.82545 23.3209 7.8356 23.2436 7.87623L23.0438 7.98287C22.9148 7.9981 22.6764 8.06412 22.5539 7.91685C22.4314 7.7442 22.4314 7.49537 22.3412 7.31764C22.3412 7.30748 22.1736 7.03834 22.3283 7.0231C22.4057 7.03326 22.5668 7.06881 22.5926 6.96217C22.6699 6.85553 22.425 6.55592 22.251 6.40357C22.1027 6.27662 21.8965 6.26139 21.6967 6.39342C21.5549 6.49498 21.5742 6.6067 21.5484 6.71334C21.524 6.78976 21.5229 6.86966 21.5453 6.94647C21.5677 7.02328 21.613 7.0948 21.6773 7.15514C21.8191 7.36842 22.0705 7.64771 21.9867 8.04381C21.9867 8.04381 21.8385 8.22662 21.5807 8.20123C21.4711 8.186 21.2971 8.15045 21.2068 7.60201C21.1359 7.19576 21.2197 6.61685 21.0006 6.34771C20.9168 6.18014 20.8588 6.02271 20.6654 6.30201C20.6139 6.41373 20.3883 6.58131 20.5494 6.92154C20.7019 7.22814 20.7464 7.56149 20.6783 7.88639C20.5816 7.9981 20.5623 8.03365 20.4398 8.14029C20.2723 8.29264 20.0854 8.25201 19.9436 8.19615C19.8146 8.13014 19.7115 8.09459 19.6471 7.86607C19.66 7.5106 19.6857 6.92662 19.602 6.80475C19.4795 6.61178 19.2797 6.68287 19.1959 6.74381C18.8125 7.07939 18.5558 7.49273 18.4547 7.93717C18.3387 8.2317 18.2162 8.14537 18.1324 8.02857C17.9262 7.87623 17.9068 6.67271 17.6555 6.87076V6.87076Z" fill="white"/>
<path fill-rule="evenodd" clip-rule="evenodd" d="M18.8683 8.84107C19.0553 8.73951 18.9715 8.66841 19.2422 8.8817C19.5916 9.36879 19.7944 9.91256 19.8351 10.4711C19.8222 10.6032 19.9383 10.6844 19.9963 10.654C20.022 10.3493 20.9695 9.92271 21.8396 9.86177C21.9685 9.83638 21.9041 9.63834 21.9234 9.53677C21.8719 9.15591 22.1941 8.8106 22.6453 8.78521C23.264 8.85631 23.4703 9.11529 23.4832 9.50631C23.4123 10.268 22.4068 10.395 21.8461 10.4559C21.7623 10.4813 21.7236 10.5118 21.8461 10.5473L24.2051 10.5575L24.3275 10.6083C24.3404 10.659 24.2888 10.6184 24.1986 10.7403C24.0688 10.9199 23.9876 11.1187 23.9601 11.3243C23.2576 11.5071 22.5293 11.5782 21.7945 11.6544C21.5367 11.7559 21.4078 11.893 21.4594 12.0454C21.5496 12.2129 22.1168 12.3856 22.1168 12.3907C22.2263 12.4415 22.3488 12.5684 22.0845 12.8274C20.9373 12.7868 20.0414 12.4008 19.732 11.8575C19.6418 11.8016 19.5386 11.8575 19.4742 11.9286C19.023 12.3856 18.5847 12.7919 17.8178 13.0153C17.3666 13.1067 16.8961 12.9594 16.6769 12.7258C16.5287 12.5887 16.5351 12.4415 16.4836 12.411C16.2322 12.4973 14.1053 13.2083 14.376 12.8731C14.8916 12.4415 15.7939 12.1165 16.5803 11.6899C16.6383 11.5426 16.7414 11.0551 17.0508 10.8977C17.0701 10.8977 17.0056 11.1821 17.0121 11.304C17.0121 11.4055 16.9992 11.4411 17.025 11.4157C17.083 11.3903 18.0369 10.7961 18.1207 10.6133C18.2109 10.5118 18.14 10.2477 18.14 10.2376C17.9595 9.87193 17.7082 9.84146 17.6179 9.65865C17.5342 9.41998 17.5728 9.14576 17.7469 9.06451C17.9015 8.95787 18.082 8.96802 18.256 9.0899C18.4494 9.22701 18.617 9.49615 18.6685 9.6942C18.6363 9.77037 18.4107 9.64342 18.3463 9.67896C18.4703 9.79128 18.5528 9.9283 18.5847 10.0751C18.7136 10.4915 18.675 10.654 18.5461 10.9231C18.1207 11.629 17.5793 11.8372 17.1023 12.1012C17.0894 12.1012 17.083 12.279 17.257 12.3754C17.3215 12.4262 17.5728 12.4516 17.8629 12.3754C18.4825 12.1043 18.9836 11.6919 19.3002 11.1922C19.3549 10.8121 19.3021 10.4271 19.1455 10.0649C18.9586 9.72466 18.7394 9.24224 18.7394 9.23209C18.733 9.01881 18.7523 8.94771 18.8683 8.84107V8.84107ZM12.6937 6.88091C12.9644 6.98248 13.4801 6.93677 13.4543 6.59146L13.4414 6.43404C13.3898 6.33248 13.2351 6.35787 13.2029 6.45943C13.19 6.49498 13.2222 6.55084 13.1836 6.56607C13.1578 6.58638 13.074 6.57623 13.074 6.47974C13.074 6.44927 13.0482 6.41881 13.0289 6.39849C13.016 6.38834 13.0031 6.38834 12.9709 6.38834C12.9322 6.38834 12.9322 6.39341 12.9129 6.41881C12.9064 6.4442 12.8935 6.46959 12.8935 6.50006C12.8935 6.5356 12.8678 6.54576 12.842 6.55084C12.8033 6.55084 12.8097 6.55084 12.7775 6.54068C12.7646 6.52545 12.7453 6.52037 12.7453 6.4899L12.726 6.40865C12.7131 6.39341 12.6873 6.38326 12.6615 6.37818C12.5133 6.37818 12.5004 6.51529 12.5133 6.56607C12.5004 6.57623 12.4939 6.8149 12.6937 6.88091V6.88091Z" fill="white"/>
<path fill-rule="evenodd" clip-rule="evenodd" d="M20.652 9.5316C20.9228 9.63316 21.5737 9.5773 21.4126 9.24722L21.3997 9.08472C21.3417 8.98316 21.1935 9.00855 21.1612 9.11519C21.1483 9.14566 21.1806 9.20152 21.1354 9.21675C21.1161 9.23707 21.0259 9.22691 21.0323 9.1355C21.0323 9.10503 21.0065 9.06949 20.9872 9.04918C20.9679 9.0441 20.9614 9.03902 20.9228 9.03902C20.8905 9.03902 20.8905 9.04918 20.8712 9.07457C20.8583 9.09996 20.8519 9.12535 20.8519 9.15582C20.8454 9.18628 20.8261 9.19644 20.7938 9.2066C20.7616 9.2066 20.7681 9.2066 20.7423 9.19136C20.7229 9.17613 20.7036 9.17105 20.7036 9.14566L20.6843 9.06441C20.6714 9.04918 20.6456 9.03902 20.6198 9.03394C20.4716 9.03394 20.4587 9.16597 20.4651 9.21675C20.4587 9.22691 20.4522 9.47066 20.6585 9.5316H20.652ZM25.2927 8.43472C25.5634 8.53629 26.0726 8.49058 26.0532 8.15035L26.0403 7.98785C25.9823 7.88628 25.8341 7.91168 25.8019 8.01324C25.789 8.04878 25.8212 8.10464 25.7761 8.12496C25.7567 8.14019 25.6665 8.13003 25.6729 8.03355C25.6729 8.00308 25.6472 7.97261 25.6278 7.9523C25.6085 7.94214 25.602 7.94214 25.5634 7.94214C25.5311 7.94214 25.5312 7.9523 25.5118 7.97769L25.4925 8.05386C25.486 8.08941 25.4667 8.10464 25.4345 8.10464C25.4022 8.10464 25.4087 8.10464 25.3829 8.09449C25.3636 8.07925 25.3442 8.07418 25.3442 8.04878C25.3442 8.02339 25.3378 7.98277 25.3249 7.96246C25.312 7.94722 25.2862 7.94214 25.2604 7.93707C25.1122 7.93707 25.0993 8.0691 25.1058 8.11988C25.0993 8.13003 25.0929 8.36871 25.2991 8.43472H25.2927ZM27.6968 11.1921C27.2263 11.6136 27.4325 12.3093 27.5421 12.4617C27.6968 12.7054 27.8192 12.8628 28.1222 12.9847C28.3993 13.1421 28.6185 13.0457 28.7345 12.9339C29.0116 12.7054 29.0181 12.1214 29.147 12.0097C29.2372 11.7964 29.4692 11.832 29.5788 11.9285C29.6813 12.0431 29.8187 12.1357 29.9784 12.1976C30.2362 12.3753 30.5456 12.4109 30.855 12.2484C31.0612 12.1519 31.1966 12.0351 31.319 11.7964C31.4479 11.5121 31.3835 10.1918 31.3513 9.40972L31.0806 8.31793C31.0806 8.30777 31.0483 7.79996 31.0161 7.68316C31.0161 7.63238 30.9968 7.61714 31.0612 7.62222C31.1321 7.673 31.1386 7.673 31.1901 7.68824C31.2546 7.69839 31.319 7.60191 31.2739 7.52066L30.6294 6.57613C30.5778 6.5355 30.5069 6.49488 30.4231 6.58628C30.3737 6.62154 30.3344 6.66468 30.3077 6.71283C30.281 6.76098 30.2676 6.81305 30.2685 6.86558C30.2878 7.08902 30.3329 7.31753 30.3522 7.54097L30.6101 8.68863C30.6938 9.50113 30.7132 10.1714 30.797 10.989C30.7841 11.3343 30.6487 11.6339 30.5198 11.6796C30.5198 11.6796 30.3265 11.766 30.1976 11.6695C30.1009 11.639 29.7206 11.1668 29.7206 11.1668C29.5272 11.0296 29.3983 11.0652 29.263 11.1668C28.8763 11.4613 28.7087 11.9996 28.4444 12.3753C28.38 12.4617 28.1866 12.5277 27.9804 12.3703C27.4519 11.7964 27.7612 10.9839 27.6968 11.1921V11.1921ZM25.4151 6.43394C25.6601 6.51011 25.8276 6.90113 25.7761 7.0941C25.7245 7.32261 25.5956 7.57652 25.5054 7.54605C25.4022 7.51558 25.5698 7.31246 25.4731 7.09918C25.4216 6.95699 25.0864 6.70308 25.1251 6.63199C25.0606 6.47457 25.2669 6.40347 25.4151 6.42886V6.43394Z" fill="white"/>
<path fill-rule="evenodd" clip-rule="evenodd" d="M28.4848 11.4259C28.5299 10.9587 28.4461 10.6743 28.4332 10.4001C28.4204 10.1259 28.0401 8.03367 27.9627 7.83055C27.8661 7.43445 28.3301 7.77976 28.2786 7.54617C28.1174 7.2618 27.7243 6.84031 27.6018 6.59148C27.5245 6.48992 27.5567 6.38836 27.3891 6.56609C27.2448 6.87771 27.1941 7.21143 27.2409 7.54109C27.6405 9.18133 28.0465 10.5423 27.9821 12.1012C28.1754 12.1012 28.3881 11.761 28.4848 11.4259V11.4259ZM32.6356 7.09422C32.8612 7.18055 32.9901 7.66805 32.9643 7.80515C32.9192 8.05906 32.8032 8.33328 32.7194 8.29773C32.6227 8.26726 32.7387 7.92195 32.6936 7.81531C32.642 7.66297 32.3391 7.38875 32.3713 7.3075C32.3069 7.13484 32.5002 7.06375 32.6356 7.09422V7.09422ZM16.1549 10.5423C16.3676 10.6083 16.4965 10.9637 16.4772 11.0653C16.4256 11.2532 16.3161 11.4563 16.2323 11.4259C16.1485 11.4055 16.2516 11.1516 16.2129 11.0704C16.1936 10.8825 15.8971 10.7809 15.9036 10.6997C15.852 10.5473 16.0325 10.522 16.1614 10.5423H16.1549Z" fill="white"/>
<path fill-rule="evenodd" clip-rule="evenodd" d="M21.285 11.0804C21.5557 11.0906 21.6911 11.2632 21.4397 11.3343C21.1819 11.4003 20.9434 11.4562 20.937 11.7406C21.0337 12.1468 20.8081 12.0046 20.6792 11.9539C20.5245 11.8625 20.0862 11.6492 20.0218 11.1921C20.0153 11.0855 20.1249 10.989 20.2989 10.989C20.5567 11.0449 20.9434 11.05 21.285 11.0804V11.0804Z" fill="#1B9D00"/>
<path fill-rule="evenodd" clip-rule="evenodd" d="M10.4888 6.31708C10.7982 6.38817 10.8175 6.7538 10.7982 6.86044C10.7531 7.05341 10.6435 7.26161 10.5662 7.23622C10.4759 7.21083 10.5662 6.94677 10.521 6.86552C10.4759 6.7538 10.2117 6.54052 10.2374 6.47958C10.1794 6.35262 10.3664 6.29169 10.4888 6.31708V6.31708ZM16.6699 8.02333C16.4249 8.12489 16.3347 8.42958 16.483 8.61239C16.6248 8.76473 16.8439 8.70887 16.8697 8.70887C17.1082 8.72919 17.2499 8.35848 17.2499 8.35848C17.2499 8.35848 17.2564 8.25692 16.9792 8.45497C16.8568 8.4702 16.8503 8.43466 16.8181 8.38388C16.7886 8.2872 16.7999 8.18557 16.8503 8.09442C16.8955 8.00302 16.8052 7.96239 16.6699 8.02333ZM18.4746 6.17489C18.3457 6.24091 18.1072 6.43895 18.1007 6.66239C18.0943 6.78934 18.0621 6.78934 18.1652 6.86552C18.249 6.95692 18.3199 6.95184 18.4746 6.88583C18.5131 6.86671 18.5462 6.84149 18.5717 6.81177C18.5972 6.78205 18.6146 6.74847 18.6228 6.71317C18.6615 6.57098 18.4294 6.78427 18.4037 6.62177C18.3521 6.46942 18.5003 6.40848 18.6421 6.2663C18.6421 6.16473 18.6421 6.09872 18.4681 6.17489H18.4746ZM19.9183 6.37802C19.8615 6.56293 19.827 6.75166 19.8152 6.94169C19.7765 7.08387 20.0085 7.14481 20.1052 6.962C20.2599 6.63192 20.2599 6.48973 20.2728 6.35262C20.2277 6.13427 20.0408 6.13934 19.9183 6.37802ZM29.0706 10.0495C29.0964 10.0241 30.3597 9.31825 30.3597 9.31825C30.4886 9.2827 30.4564 9.68388 30.3984 9.6788C30.0066 9.97628 29.556 10.2215 29.0642 10.405C28.9998 10.4405 28.9417 10.1358 29.0642 10.0495H29.0706ZM30.2115 10.0393C30.4371 10.1257 30.5273 10.6386 30.5015 10.7757C30.5015 11.0499 30.2888 11.2632 30.1986 11.2327C30.1083 11.1972 30.2115 10.8925 30.1664 10.7858C30.1148 10.6335 29.9279 10.3542 29.9601 10.2729C29.8956 10.1003 30.0761 10.0089 30.2179 10.0393H30.2115ZM22.7349 12.2433C22.8395 12.1471 22.961 12.0633 23.0958 11.9944C23.2248 11.9436 23.3408 12.035 23.3343 12.03C23.3537 12.1315 23.257 12.2179 23.2892 12.3499C23.315 12.4007 23.3343 12.4616 23.4568 12.4413C23.6566 12.3143 23.8435 12.3042 24.0369 12.2991C24.198 12.3042 24.2044 12.5124 24.1013 12.5124C23.7339 12.5733 23.5728 12.6546 23.3085 12.7308C23.1796 12.7917 23.0765 12.7155 23.0765 12.7104C23.0765 12.7054 23.0056 12.6546 23.0507 12.5225C23.0636 12.421 23.0121 12.36 22.896 12.3702C22.8187 12.4108 22.7414 12.4311 22.7027 12.355C22.6833 12.3042 22.6769 12.2737 22.7349 12.2433V12.2433ZM31.5392 12.5175C31.5908 12.5682 31.6294 12.619 31.5328 12.7104L31.2943 12.8729C31.2556 12.9237 31.2298 13.0151 31.3587 13.0405C31.5908 13.0913 32.1322 12.812 32.1322 12.8069C32.2224 12.7561 32.1966 12.6546 32.1837 12.6546C32.1322 12.6089 32.0162 12.6393 31.9388 12.6292C31.9001 12.6292 31.7777 12.619 31.8357 12.5276C31.879 12.4828 31.9137 12.4331 31.9388 12.3804C31.971 12.3194 31.9388 12.2788 31.8099 12.2433C31.6746 12.2229 31.6165 12.2331 31.4683 12.2433C31.391 12.2534 31.3652 12.2839 31.3458 12.36C31.3523 12.4768 31.4425 12.4718 31.5392 12.5124V12.5175Z" fill="white"/>
<path fill-rule="evenodd" clip-rule="evenodd" d="M22.7796 9.63309C22.7474 9.68387 22.6314 9.68387 22.5218 9.63309C22.4122 9.58231 22.3478 9.50106 22.3864 9.45536C22.4251 9.40965 22.5347 9.40965 22.6443 9.45536C22.7538 9.50106 22.8118 9.58739 22.7796 9.63309ZM17.0433 6.91122C16.9788 6.92645 16.8886 6.88075 16.8499 6.80965C16.8112 6.73856 16.8306 6.67762 16.895 6.66239C16.9595 6.64715 17.0433 6.69794 17.0884 6.76395C17.1335 6.82997 17.1077 6.90106 17.0368 6.91629L17.0433 6.91122Z" fill="#259F00"/>
<path fill-rule="evenodd" clip-rule="evenodd" d="M28.393 19.043C28.9988 19.0633 29.566 19.043 30.1654 19.0684C30.275 19.1445 30.1977 19.3223 30.1268 19.3121L29.624 19.2969C29.6176 19.1445 29.1277 19.1699 29.1406 19.302C28.8764 19.3273 28.6379 19.2969 28.3672 19.2867C28.2898 19.2105 28.3027 19.0734 28.393 19.043V19.043Z" fill="#209000"/>
</g>
<defs>
<clipPath id="clip0_17_27000">
<rect width="44" height="26" fill="white"/>
</clipPath>
</defs>
</svg>
